HIERARCHY
ROOT Hips
{
	OFFSET 0.000000 83.214638 0.000000
	CHANNELS 6 Xposition Yposition Zposition Xrotation Yrotation Zrotation
	JOINT Pelvis
	{
		OFFSET 0.000000 0.000000 0.000000
		CHANNELS 3 Xrotation Yrotation Zrotation
		JOINT LeftUpLeg
		{
			OFFSET 8.479700 -4.795502 -0.379100
			CHANNELS 3 Xrotation Yrotation Zrotation
			JOINT LeftLeg
			{
				OFFSET 0.024144 -32.555107 0.112900
				CHANNELS 3 Xrotation Yrotation Zrotation
				JOINT LeftFoot
				{
					OFFSET -0.024144 -32.638630 -3.012600
					CHANNELS 3 Xrotation Yrotation Zrotation
					JOINT LeftToeBase
					{
						OFFSET 0.970200 -13.225400 11.864200
						CHANNELS 3 Xrotation Yrotation Zrotation
						End Site
						{
							OFFSET 0.000000 12.319262 0.000000
						}
					}
					JOINT LFootTongue
					{
						OFFSET 1.142400 -1.059800 6.665200
						CHANNELS 3 Xrotation Yrotation Zrotation
						End Site
						{
							OFFSET 0.000000 12.319262 0.000000
						}
					}
				}
				JOINT LeftPantLeg
				{
					OFFSET 0.918482 -16.533964 -2.284700
					CHANNELS 3 Xrotation Yrotation Zrotation
					End Site
					{
						OFFSET 0.350399 24.744368 0.000000
					}
				}
			}
		}
		JOINT RightUpLeg
		{
			OFFSET -8.479700 -4.795502 -0.379100
			CHANNELS 3 Xrotation Yrotation Zrotation
			JOINT RightLeg
			{
				OFFSET -0.023144 -32.555092 0.112900
				CHANNELS 3 Xrotation Yrotation Zrotation
				JOINT RightFoot
				{
					OFFSET 0.023144 -32.638641 -3.012700
					CHANNELS 3 Xrotation Yrotation Zrotation
					JOINT RightToeBase
					{
						OFFSET -0.970200 -13.225400 11.864200
						CHANNELS 3 Xrotation Yrotation Zrotation
						End Site
						{
							OFFSET 0.000000 12.319244 0.000000
						}
					}
					JOINT RFootTongue
					{
						OFFSET -1.142200 -1.059800 6.665200
						CHANNELS 3 Xrotation Yrotation Zrotation
						End Site
						{
							OFFSET 0.000000 12.319243 0.000000
						}
					}
				}
				JOINT RightPantLeg
				{
					OFFSET -0.919482 -16.533978 -2.284800
					CHANNELS 3 Xrotation Yrotation Zrotation
					End Site
					{
						OFFSET -0.350400 24.744419 0.000000
					}
				}
			}
		}
	}
	JOINT Spine
	{
		OFFSET 0.000000 7.722000 1.166200
		CHANNELS 3 Xrotation Yrotation Zrotation
		JOINT Spine1
		{
			OFFSET 0.000000 12.024101 0.248800
			CHANNELS 3 Xrotation Yrotation Zrotation
			JOINT Spine2
			{
				OFFSET 0.000000 11.502998 -0.491200
				CHANNELS 3 Xrotation Yrotation Zrotation
				JOINT Neck
				{
					OFFSET 0.000000 18.430702 -3.123100
					CHANNELS 3 Xrotation Yrotation Zrotation
					JOINT Head
					{
						OFFSET 0.000000 9.051102 1.034000
						CHANNELS 3 Xrotation Yrotation Zrotation
						JOINT HairB
						{
							OFFSET 0.208400 24.786102 24.822300
							CHANNELS 3 Xrotation Yrotation Zrotation
							End Site
							{
								OFFSET 0.000000 32.263779 0.000000
							}
						}
						JOINT HairA
						{
							OFFSET -7.081100 24.428299 23.196600
							CHANNELS 3 Xrotation Yrotation Zrotation
							End Site
							{
								OFFSET 0.000000 32.263779 0.000000
							}
						}
						JOINT Hat
						{
							OFFSET 16.728800 15.048294 -15.439601
							CHANNELS 3 Xrotation Yrotation Zrotation
							End Site
							{
								OFFSET 0.000000 32.263779 0.000000
							}
						}
					}
				}
				JOINT LeftShoulder
				{
					OFFSET 6.197800 13.665199 -4.064700
					CHANNELS 3 Xrotation Yrotation Zrotation
					JOINT LeftArm
					{
						OFFSET 7.778100 -0.187103 -1.709300
						CHANNELS 3 Xrotation Yrotation Zrotation
						JOINT LeftForeArm
						{
							OFFSET 22.049376 0.000000 0.000000
							CHANNELS 3 Xrotation Yrotation Zrotation
							JOINT LeftHand
							{
								OFFSET 23.009392 0.000000 0.000000
								CHANNELS 3 Xrotation Yrotation Zrotation
								JOINT LeftHandThumb1
								{
									OFFSET 3.507191 -2.063065 3.133727
									CHANNELS 3 Xrotation Yrotation Zrotation
									JOINT LeftHandThumb2
									{
										OFFSET 3.101337 -1.790558 1.790558
										CHANNELS 3 Xrotation Yrotation Zrotation
										JOINT LeftHandThumb3
										{
											OFFSET 3.058640 -1.765907 1.765906
											CHANNELS 3 Xrotation Yrotation Zrotation
											End Site
											{
												OFFSET -0.415260 3.926476 -0.049563
											}
										}
									}
								}
								JOINT LeftHandIndex1
								{
									OFFSET 11.334419 -0.901459 3.706815
									CHANNELS 3 Xrotation Yrotation Zrotation
									JOINT LeftHandIndex2
									{
										OFFSET 3.283112 0.000000 0.000000
										CHANNELS 3 Xrotation Yrotation Zrotation
										JOINT LeftHandIndex3
										{
											OFFSET 3.323853 0.000000 0.000000
											CHANNELS 3 Xrotation Yrotation Zrotation
											End Site
											{
												OFFSET -1.135597 3.097809 0.402452
											}
										}
									}
								}
								JOINT LeftHandMiddle1
								{
									OFFSET 11.335861 0.000000 0.000000
									CHANNELS 3 Xrotation Yrotation Zrotation
									JOINT LeftHandMiddle2
									{
										OFFSET 3.410492 0.000000 0.000000
										CHANNELS 3 Xrotation Yrotation Zrotation
										JOINT LeftHandMiddle3
										{
											OFFSET 3.312172 0.000000 0.000000
											CHANNELS 3 Xrotation Yrotation Zrotation
											End Site
											{
												OFFSET -1.150200 3.080154 0.400270
											}
										}
									}
								}
								JOINT LeftHandRing1
								{
									OFFSET 11.514786 -0.013176 -3.003090
									CHANNELS 3 Xrotation Yrotation Zrotation
									JOINT LeftHandRing2
									{
										OFFSET 3.053307 0.000000 0.000000
										CHANNELS 3 Xrotation Yrotation Zrotation
										JOINT LeftHandRing3
										{
											OFFSET 3.295807 0.000000 0.000000
											CHANNELS 3 Xrotation Yrotation Zrotation
											End Site
											{
												OFFSET -1.281006 3.013344 0.375733
											}
										}
									}
								}
								JOINT LeftHandPinky1
								{
									OFFSET 10.518692 -0.960396 -5.730441
									CHANNELS 3 Xrotation Yrotation Zrotation
									JOINT LeftHandPinky2
									{
										OFFSET 2.861649 0.000000 0.000000
										CHANNELS 3 Xrotation Yrotation Zrotation
										JOINT LeftHandPinky3
										{
											OFFSET 2.863380 0.000000 0.000000
											CHANNELS 3 Xrotation Yrotation Zrotation
											End Site
											{
												OFFSET -0.843597 2.711159 0.369971
											}
										}
									}
								}
							}
							JOINT LSleeve
							{
								OFFSET 6.676277 -0.344902 -1.011730
								CHANNELS 3 Xrotation Yrotation Zrotation
								End Site
								{
									OFFSET 0.000000 14.885353 0.000000
								}
							}
						}
					}
				}
				JOINT RightShoulder
				{
					OFFSET -6.197800 13.665199 -4.064700
					CHANNELS 3 Xrotation Yrotation Zrotation
					JOINT RightArm
					{
						OFFSET -7.778100 -0.187103 -1.709300
						CHANNELS 3 Xrotation Yrotation Zrotation
						JOINT RightForeArm
						{
							OFFSET -22.049376 0.000000 0.000000
							CHANNELS 3 Xrotation Yrotation Zrotation
							JOINT RightHand
							{
								OFFSET -23.009392 0.000000 0.000000
								CHANNELS 3 Xrotation Yrotation Zrotation
								JOINT RightHandThumb1
								{
									OFFSET -3.507191 -2.063065 3.133727
									CHANNELS 3 Xrotation Yrotation Zrotation
									JOINT RightHandThumb2
									{
										OFFSET -3.101337 -1.790558 1.790558
										CHANNELS 3 Xrotation Yrotation Zrotation
										JOINT RightHandThumb3
										{
											OFFSET -3.058640 -1.765907 1.765906
											CHANNELS 3 Xrotation Yrotation Zrotation
											End Site
											{
												OFFSET 0.415260 3.926476 -0.049563
											}
										}
									}
								}
								JOINT RightHandIndex1
								{
									OFFSET -11.334419 -0.901459 3.706815
									CHANNELS 3 Xrotation Yrotation Zrotation
									JOINT RightHandIndex2
									{
										OFFSET -3.283112 0.000000 0.000000
										CHANNELS 3 Xrotation Yrotation Zrotation
										JOINT RightHandIndex3
										{
											OFFSET -3.323853 0.000000 0.000000
											CHANNELS 3 Xrotation Yrotation Zrotation
											End Site
											{
												OFFSET 1.135597 3.097809 0.402452
											}
										}
									}
								}
								JOINT RightHandMiddle1
								{
									OFFSET -11.335861 0.000000 0.000000
									CHANNELS 3 Xrotation Yrotation Zrotation
									JOINT RightHandMiddle2
									{
										OFFSET -3.410492 0.000000 0.000000
										CHANNELS 3 Xrotation Yrotation Zrotation
										JOINT RightHandMiddle3
										{
											OFFSET -3.312172 0.000000 0.000000
											CHANNELS 3 Xrotation Yrotation Zrotation
											End Site
											{
												OFFSET 1.150200 3.080154 0.400270
											}
										}
									}
								}
								JOINT RightHandRing1
								{
									OFFSET -11.514786 -0.013176 -3.003090
									CHANNELS 3 Xrotation Yrotation Zrotation
									JOINT RightHandRing2
									{
										OFFSET -3.053307 0.000000 0.000000
										CHANNELS 3 Xrotation Yrotation Zrotation
										JOINT RightHandRing3
										{
											OFFSET -3.295807 0.000000 0.000000
											CHANNELS 3 Xrotation Yrotation Zrotation
											End Site
											{
												OFFSET 1.281006 3.013344 0.375733
											}
										}
									}
								}
								JOINT RightHandPinky1
								{
									OFFSET -10.518692 -0.960396 -5.730441
									CHANNELS 3 Xrotation Yrotation Zrotation
									JOINT RightHandPinky2
									{
										OFFSET -2.861649 0.000000 0.000000
										CHANNELS 3 Xrotation Yrotation Zrotation
										JOINT RightHandPinky3
										{
											OFFSET -2.863380 0.000000 0.000000
											CHANNELS 3 Xrotation Yrotation Zrotation
											End Site
											{
												OFFSET 0.843597 2.711159 0.369971
											}
										}
									}
								}
							}
							JOINT RSleeve
							{
								OFFSET -6.676277 -0.344902 -1.011730
								CHANNELS 3 Xrotation Yrotation Zrotation
								End Site
								{
									OFFSET 0.000000 14.885353 0.000000
								}
							}
						}
					}
				}
				JOINT Backpack
				{
					OFFSET 0.000000 -2.471497 36.677502
					CHANNELS 3 Xrotation Yrotation Zrotation
					End Site
					{
						OFFSET 0.000000 20.427315 0.000000
					}
				}
				JOINT Hood
				{
					OFFSET 0.000000 18.754097 -10.431000
					CHANNELS 3 Xrotation Yrotation Zrotation
					JOINT Hood1
					{
						OFFSET 0.000000 -5.011002 -7.685901
						CHANNELS 3 Xrotation Yrotation Zrotation
						End Site
						{
							OFFSET 0.000000 9.175140 0.000000
						}
					}
				}
				JOINT LHoodieString
				{
					OFFSET 5.250500 16.397697 3.089900
					CHANNELS 3 Xrotation Yrotation Zrotation
					JOINT LHoodieString1
					{
						OFFSET 0.257700 -6.364304 3.694600
						CHANNELS 3 Xrotation Yrotation Zrotation
						JOINT LHoodieString2
						{
							OFFSET 0.000000 -9.643799 2.679100
							CHANNELS 3 Xrotation Yrotation Zrotation
							End Site
							{
								OFFSET 0.000000 10.009018 0.000000
							}
						}
					}
				}
				JOINT RHoodieString
				{
					OFFSET -5.250500 16.397697 3.089900
					CHANNELS 3 Xrotation Yrotation Zrotation
					JOINT RHoodieString1
					{
						OFFSET -0.257700 -6.364304 3.694600
						CHANNELS 3 Xrotation Yrotation Zrotation
						JOINT RHoodieString2
						{
							OFFSET 0.000000 -9.643799 2.679100
							CHANNELS 3 Xrotation Yrotation Zrotation
							End Site
							{
								OFFSET 0.000000 10.009018 0.000000
							}
						}
					}
				}
			}
			JOINT LBackpack_Strap
			{
				OFFSET 15.223200 -7.719803 -6.610900
				CHANNELS 3 Xrotation Yrotation Zrotation
				End Site
				{
					OFFSET 0.000000 16.040596 0.000000
				}
			}
			JOINT RBackpack_Strap
			{
				OFFSET -15.223000 -7.719803 -6.610900
				CHANNELS 3 Xrotation Yrotation Zrotation
				End Site
				{
					OFFSET 0.000000 16.040596 0.000000
				}
			}
		}
	}
	JOINT BoyFacialAnim_Joint
	{
		OFFSET 1.000000 -82.208099 -1.550900
		CHANNELS 3 Xrotation Yrotation Zrotation
		End Site
		{
			OFFSET 0.000000 30.012791 0.000000
		}
	}
}
MOTION
Frames: 4
Frame Time: 0.033333
0.433641 78.808548 1.042015 -1.131159 18.244451 3.514687 0.000000 0.000001 -0.000000 -13.957061 7.721105 12.013563 23.500463 0.861841 3.124533 -7.247077 1.618272 -15.934141 -0.000000 0.000002 -0.000000 -0.000000 0.000002 -0.000000 0.000000 0.000001 0.000000 -3.313170 -16.633401 -19.067045 21.878187 -4.092646 -1.064157 -16.480219 -3.313223 17.057134 -0.000000 -0.000000 0.000000 -0.000000 -0.000000 0.000000 -0.000003 -0.000000 -0.000000 -0.033593 -0.309037 -1.624331 0.769890 -0.720346 -1.523189 0.759854 -0.742440 -1.517821 4.546089 9.513228 -2.485396 8.795420 47.745966 -10.736964 0.000000 -0.000001 -0.000000 0.000000 -0.000001 -0.000000 0.000000 -0.000001 -0.000000 3.228263 -6.077796 -11.268556 6.611650 -9.527430 -51.777769 -0.000004 -35.094612 -0.000007 18.754904 20.381657 -15.274777 20.436891 13.880143 -12.068687 3.889223 11.787059 1.095360 0.000002 0.000000 0.000001 -1.818861 2.405723 -55.885865 0.460099 2.479151 -21.024482 -0.000001 -0.000000 -0.000007 0.714311 3.410601 -41.222548 1.347745 4.096825 -36.406558 0.000002 0.000000 -0.000002 4.943281 8.262675 -40.740398 0.761816 3.153081 -27.159718 -0.000000 -0.000000 -0.000000 7.341445 12.400715 -35.387374 0.651471 -1.146810 -25.403524 -0.000001 -0.000000 -0.000000 -0.000000 -0.000000 -0.000002 0.482534 -0.588183 6.672641 5.255723 7.653271 66.233000 -0.000001 13.441027 0.000021 -10.885110 -13.418590 26.673183 1.461222 -7.994665 5.046042 9.306325 -26.659533 -1.276815 0.000002 -0.000001 0.000001 -1.387927 1.283948 26.026870 0.477891 -2.537707 21.326127 -0.000001 0.000001 -0.000002 -0.289030 1.026040 10.148664 0.962723 -3.535120 30.459328 0.000001 0.000000 0.000001 0.841382 -3.848648 16.407424 0.828878 -3.297407 28.213669 0.000001 -0.000003 -0.000000 0.875400 -3.560224 21.160350 0.560102 -2.738764 23.112105 0.000001 0.000000 0.000000 0.000001 -0.000000 -0.000001 0.000000 0.000001 -0.000000 0.000000 0.000001 -0.000000 0.000000 0.000001 -0.000000 0.000000 0.000001 -0.000000 0.000000 0.000001 -0.000000 0.000000 0.000001 -0.000000 0.000000 0.000001 -0.000000 0.000000 0.000001 -0.000000 0.000000 0.000001 -0.000000 -0.000000 -0.000000 0.000000 -0.000000 -0.000000 0.000000 0.000000 0.000001 -0.000000 
0.433341 78.805725 1.056541 -1.222495 18.209359 3.529649 0.000000 -0.000001 0.000000 -13.852353 7.720301 12.007472 23.517902 0.916531 3.176301 -7.271982 1.625150 -15.977967 0.000000 0.000000 -0.000000 0.000000 0.000000 -0.000000 0.000001 -0.000001 -0.000000 -3.219305 -16.671273 -19.062225 21.865915 -4.026166 -1.065087 -16.491915 -3.313426 17.045113 -0.000000 0.000000 0.000000 -0.000000 0.000000 0.000000 -0.000001 -0.000001 -0.000001 -0.049975 -0.303009 -1.638264 0.783076 -0.712392 -1.541529 0.773086 -0.735447 -1.535939 4.665143 9.170598 -2.249721 9.250986 45.997936 -10.070042 0.000000 -0.000001 -0.000000 0.000000 -0.000001 -0.000000 0.000000 -0.000001 -0.000000 3.224041 -6.088862 -11.262504 7.224102 -9.872460 -50.985245 0.000002 -35.706375 0.000000 19.453431 20.415842 -16.519834 21.127411 14.342432 -12.274892 3.911780 11.938608 1.098561 -0.000003 -0.000001 -0.000001 -1.459778 2.558759 -55.063414 0.456619 2.470073 -20.943933 -0.000000 -0.000001 -0.000005 1.078506 3.818264 -40.885820 1.337071 4.082353 -36.256990 0.000002 0.000003 -0.000001 5.247452 8.683640 -40.236385 0.763525 3.156426 -27.190959 -0.000002 -0.000006 0.000000 7.470881 12.820460 -34.625723 0.647493 -1.155193 -25.326792 0.000001 0.000001 0.000002 -0.000001 0.000003 -0.000003 0.486826 -0.474913 6.713967 5.304567 7.608225 66.045587 0.000009 13.333900 -0.000014 -10.890574 -13.473779 26.679385 1.474188 -8.008709 5.052684 9.305714 -26.657455 -1.277308 -0.000001 0.000005 -0.000002 -1.386519 1.281207 26.025707 0.481332 -2.546508 21.403844 -0.000003 0.000002 0.000002 -0.288925 1.026703 10.143207 0.963008 -3.535602 30.463924 -0.000000 0.000000 0.000003 0.842580 -3.855633 16.382414 0.828859 -3.297365 28.213223 -0.000001 -0.000001 0.000005 0.873729 -3.556399 21.152333 0.559648 -2.737704 23.102582 0.000000 0.000001 -0.000001 -0.000001 -0.000000 -0.000001 -0.000000 -0.000000 0.000000 -0.000000 -0.000000 0.000000 -0.000000 -0.000000 0.000000 -0.000000 -0.000000 0.000000 -0.000000 -0.000000 0.000000 0.000000 -0.000000 0.000000 -0.000000 -0.000000 0.000000 -0.000000 -0.000000 0.000000 0.000000 -0.000000 0.000000 0.000000 0.000001 0.000000 0.000000 0.000001 0.000000 0.000000 -0.000001 0.000000 
0.431281 78.802338 1.075027 -1.402014 18.241871 3.557047 -0.000000 0.000000 -0.000000 -13.697783 7.729059 12.015959 23.554862 0.890578 3.244914 -7.303729 1.633070 -16.016503 -0.000000 0.000002 0.000000 -0.000000 0.000002 0.000000 -0.000000 0.000000 -0.000001 -2.988583 -16.754509 -19.029629 21.812033 -3.995040 -1.054264 -16.502169 -3.314103 17.035074 0.000000 -0.000000 0.000000 0.000000 -0.000000 0.000000 -0.000001 -0.000001 0.000000 -0.065042 -0.304945 -1.687816 0.804810 -0.723524 -1.577916 0.794305 -0.748332 -1.571904 4.904758 8.359644 -1.672060 9.970485 42.094456 -8.766196 -0.000000 0.000001 0.000000 -0.000000 0.000001 0.000000 -0.000000 0.000001 0.000000 3.210345 -6.125622 -11.263644 8.180899 -10.759630 -49.765684 -0.000017 -37.109733 -0.000040 20.796166 21.075563 -17.897505 21.821042 14.794369 -12.490089 3.880173 11.725952 1.094003 -0.000000 -0.000001 -0.000002 -0.890967 2.875731 -54.201639 0.462322 2.484904 -21.075753 -0.000004 -0.000000 -0.000002 1.591589 4.408976 -40.632785 1.350739 4.100874 -36.448488 0.000001 -0.000000 -0.000001 5.620562 9.194828 -39.767397 0.774845 3.178327 -27.395745 -0.000001 -0.000001 -0.000002 7.602527 13.234793 -33.950610 0.661362 -1.126047 -25.593906 -0.000000 0.000003 -0.000005 -0.000001 -0.000000 -0.000001 0.493491 -0.342948 6.810912 5.383421 7.619680 65.750037 0.000003 13.197975 0.000017 -10.757017 -13.533699 26.760195 1.493201 -8.030378 5.044279 9.306127 -26.658949 -1.276981 -0.000001 0.000001 -0.000001 -1.383586 1.273883 26.031666 0.483116 -2.551044 21.443872 -0.000003 0.000001 0.000004 -0.289598 1.029966 10.145947 0.963593 -3.536603 30.473473 0.000002 0.000001 -0.000000 0.843383 -3.860081 16.367444 0.829340 -3.298274 28.221756 0.000001 0.000000 0.000006 0.873379 -3.555556 21.150796 0.559176 -2.736602 23.092701 0.000001 -0.000003 -0.000007 0.000001 0.000000 -0.000000 -0.000000 -0.000002 -0.000000 -0.000000 -0.000002 -0.000000 -0.000000 -0.000002 -0.000000 -0.000000 -0.000002 -0.000000 -0.000000 -0.000002 -0.000000 -0.000000 0.000000 -0.000000 -0.000000 -0.000002 -0.000000 -0.000000 -0.000002 -0.000000 -0.000000 0.000000 -0.000000 -0.000000 -0.000001 -0.000000 -0.000000 -0.000001 -0.000000 -0.000000 0.000000 -0.000000 
0.422328 78.795334 1.086984 -1.709994 18.422135 3.608336 0.000000 -0.000000 -0.000000 -13.508150 7.749664 12.041043 23.635482 0.678650 3.343475 -7.339516 1.640675 -16.035493 0.000000 -0.000000 0.000000 0.000000 -0.000000 0.000000 -0.000000 0.000001 -0.000001 -2.568220 -16.897970 -18.949595 21.731468 -4.075813 -1.034288 -16.519236 -3.318538 17.043267 -0.000000 -0.000000 0.000000 -0.000000 -0.000000 0.000000 -0.000001 -0.000001 0.000000 -0.074324 -0.314995 -1.797376 0.841464 -0.755962 -1.648869 0.829527 -0.783749 -1.642162 5.314970 7.012666 -0.802221 10.990805 35.674833 -6.453285 0.000000 0.000002 -0.000001 0.000000 0.000002 -0.000001 0.000000 0.000002 -0.000001 3.177032 -6.203144 -11.282950 9.598927 -12.395552 -48.063590 0.000018 -39.999620 0.000018 22.441702 22.038821 -18.272657 22.181017 14.922358 -12.822995 3.791234 11.126607 1.080771 0.000001 0.000001 0.000001 -0.325768 3.242657 -53.667914 0.488676 2.552184 -21.675616 0.000003 0.000001 -0.000002 2.037361 4.929085 -40.444169 1.415224 4.186538 -37.340883 0.000001 0.000001 -0.000001 5.877357 9.538515 -39.542315 0.804065 3.233989 -27.918195 -0.000002 -0.000001 0.000001 7.713339 13.441725 -33.819548 0.712027 -1.022555 -26.547818 0.000001 -0.000001 0.000001 0.000002 -0.000001 -0.000002 0.503144 -0.181061 6.981125 5.574684 7.678064 65.339905 0.000002 13.116638 0.000014 -10.759202 -13.531216 26.904236 1.507350 -8.047742 5.018401 9.304826 -26.654441 -1.278036 0.000003 0.000000 0.000001 -1.381401 1.267878 26.038932 0.482097 -2.548460 21.421008 -0.000001 0.000000 0.000002 -0.290992 1.035702 10.155664 0.964343 -3.537864 30.485617 0.000001 0.000001 -0.000002 0.842099 -3.854723 16.376157 0.830012 -3.299517 28.233342 0.000000 -0.000001 0.000005 0.874171 -3.556715 21.167298 0.559302 -2.736904 23.095322 -0.000001 -0.000003 -0.000002 0.000001 -0.000001 0.000002 0.000000 0.000000 -0.000000 0.000000 0.000000 -0.000000 0.000000 0.000000 -0.000000 0.000000 0.000000 -0.000000 0.000000 0.000000 -0.000000 -0.000000 0.000000 -0.000000 0.000000 0.000000 -0.000000 0.000000 0.000000 -0.000000 -0.000000 0.000000 -0.000000 0.000000 -0.000001 -0.000000 0.000000 -0.000001 -0.000000 0.000000 -0.000000 -0.000000 
